Coordinates
version=1
nRows=34
nColumns=19
inDegrees=yes

Units are S.I. units (second, meters, Newtons, ...)
If the header above contains a line with 'inDegrees', this indicates whether rotational values are in degrees (yes) or radians (no).

endheader
time	pelvis_tilt	pelvis_list	pelvis_rotation	pelvis_tx	pelvis_ty	pelvis_tz	hip_flexion_r	hip_adduction_r	hip_rotation_r	knee_angle_r	knee_angle_r_beta	ankle_angle_r	hip_flexion_l	hip_adduction_l	hip_rotation_l	knee_angle_l	knee_angle_l_beta	ankle_angle_l
     15.07333333	     -2.96713846	     -6.71151776	     -4.33202785	      2.18751665	      0.96171486	      1.06139004	     30.82140691	      6.74751785	    -25.15062510	     25.30193483	      0.44160207	     -4.53108001	    -20.21708252	    -14.49677892	    -22.28276824	     72.42536908	      1.26406115	    -14.98650425
     15.08000000	     -2.30784230	     -7.45382813	     -4.24951252	      2.18709414	      0.95807040	      1.06219527	     29.32939268	      7.12193843	    -26.88722980	     27.06103589	      0.47230418	     -2.60190470	    -19.07734726	    -15.88719900	    -21.32672836	     77.36615807	      1.35029419	    -13.99172347
     15.08666667	     -1.83794371	     -8.31595684	     -3.93921032	      2.18638039	      0.95415547	      1.06245527	     27.96281290	      7.52220015	    -28.63938392	     28.88921335	      0.50421189	     -0.45241558	    -17.39943218	    -17.33571815	    -19.83186812	     82.28362095	      1.43612011	    -12.95131056
     15.09333333	     -1.69848617	     -9.05195708	     -3.60610526	      2.18519165	      0.94985662	      1.06239701	     26.97587511	      7.80922812	    -30.02686406	     30.87669341	      0.53889996	      1.95507992	    -15.02135643	    -18.50210658	    -17.91582355	     87.12538668	      1.52062486	    -11.93310500
     15.10000000	     -1.55266850	     -9.65765092	     -3.48697469	      2.18357402	      0.94555027	      1.06216744	     26.02848055	      8.04578628	    -30.80583964	     33.07580216	      0.57728165	      4.64845821	    -12.51731243	    -19.28803977	    -16.00853408	     91.72260421	      1.60086144	    -10.88084141
     15.10666667	     -1.54631295	    -10.16416737	     -3.42806727	      2.18150356	      0.94128287	      1.06168009	     25.23682445	      8.22458497	    -31.14119573	     35.30421679	      0.61617482	      7.40166537	     -9.62906810	    -19.78759123	    -13.92534982	     96.10979348	      1.67743234	     -9.88667854
     15.11333333	     -1.68572740	    -10.52590704	     -3.43731962	      2.17899522	      0.93718507	      1.06099272	     24.59593998	      8.30356064	    -31.05194394	     37.50047722	      0.65450680	     10.10549499	     -6.35430283	    -19.94668540	    -11.70165548	    100.23570983	      1.74944316	     -8.98625025
     15.12000000	     -2.01585216	    -10.67900291	     -3.56795655	      2.17607941	      0.93326663	      1.06019773	     24.15757330	      8.24085743	    -30.48499740	     39.64648713	      0.69196174	     12.69172369	     -2.69150585	    -19.71305559	     -9.45782744	    104.05630729	      1.81612517	     -8.16876926
     15.12666667	     -2.24397077	    -10.74470123	     -3.70426675	      2.17291336	      0.92992632	      1.05932749	     23.53090123	      8.13180905	    -29.63847493	     41.59457888	      0.72596235	     15.09123889	      0.98713026	    -19.29976623	     -7.26296309	    107.48197927	      1.87591442	     -7.37598050
     15.13333333	     -2.98349057	    -10.49109070	     -3.82148907	      2.16947763	      0.92660366	      1.05830598	     23.41505985	      7.71892983	    -28.56719671	     43.39568658	      0.75739761	     17.19443032	      5.49896739	    -18.36569437	     -4.89890675	    110.55260902	      1.92950702	     -6.90092786
     15.14000000	     -3.50938519	    -10.15826414	     -3.83440084	      2.16605881	      0.92396859	      1.05723957	     22.92709485	      7.22223387	    -27.45736361	     44.91355576	      0.78388943	     19.03511808	      9.82780193	    -17.29897173	     -2.66909462	    113.13222412	      1.97452980	     -6.34685756
     15.14666667	     -4.07861425	     -9.66994747	     -3.78683030	      2.16276816	      0.92183241	      1.05626721	     22.32584853	      6.60952800	    -26.27533771	     46.11497594	      0.80485816	     20.60947075	     14.25104778	    -16.01625309	     -0.59369590	    115.18084621	      2.01028500	     -5.96611996
     15.15333333	     -4.40703569	     -9.07718910	     -3.51506060	      2.15981618	      0.92049861	      1.05524675	     21.25697534	      5.83083729	    -25.31656641	     46.96866660	      0.81975788	     21.86660905	     18.40073722	    -14.55555274	      1.36023987	    116.64597258	      2.03585628	     -5.55386095
     15.16000000	     -4.84011733	     -8.38052196	     -3.15778500	      2.15725213	      0.91958393	      1.05444582	     20.08492417	      5.00270235	    -24.43368417	     47.43518916	      0.82790023	     22.80651602	     22.59608781	    -12.96776216	      3.09479029	    117.54610744	      2.05156660	     -5.27637905
     15.16666667	     -4.93678927	     -7.61668774	     -2.54020751	      2.15527996	      0.91956622	      1.05369834	     18.28580134	      4.06897727	    -23.91109087	     47.48365986	      0.82874621	     23.43970826	     26.27786667	    -11.26716168	      4.63866665	    117.84117733	      2.05671654	     -4.95093342
     15.17333333	     -5.25882019	     -6.79696982	     -1.81815084	      2.15372091	      0.91968836	      1.05321877	     16.52646404	      3.14322741	    -23.59837457	     47.17718456	      0.82339720	     23.65160548	     30.07285398	     -9.51265448	      5.97797759	    117.63477258	      2.05311410	     -4.68043048
     15.18000000	     -5.21733577	     -5.91384037	     -0.90184280	      2.15282084	      0.92077112	      1.05288292	     14.11059535	      2.18980543	    -23.63257114	     46.42971657	      0.81035142	     23.43760573	     33.19661783	     -7.70110719	      7.03161716	    116.83962896	      2.03923622	     -4.36319412
     15.18666667	     -5.27766300	     -4.98377167	      0.06131499	      2.15246969	      0.92224458	      1.05282102	     11.60781051	      1.28629665	    -23.89107241	     45.31611244	      0.79091537	     22.66977828	     36.17119505	     -5.91661716	      7.78261752	    115.53127500	      2.01640114	     -4.06318581
     15.19333333	     -5.31659380	     -4.02534084	      1.11026296	      2.15267447	      0.92417231	      1.05288945	      8.89498431	      0.47458407	    -24.35652859	     43.82544058	      0.76489823	     21.48412281	     38.83087410	     -4.15183399	      8.27010290	    113.74791376	      1.98527561	     -3.66180407
     15.20000000	     -5.37424572	     -3.04241448	      2.10621169	      2.15350637	      0.92661169	      1.05320977	      6.04867134	     -0.23472349	    -24.93544492	     41.97916857	      0.73267471	     19.62877443	     41.18071995	     -2.54217253	      8.38268073	    111.48929533	      1.94585528	     -3.24219325
     15.20666667	     -5.41754770	     -2.07593781	      3.01057902	      2.15489933	      0.92953043	      1.05378344	      3.07312876	     -0.80305529	    -25.56791536	     39.78849517	      0.69444025	     17.07356026	     43.18160327	     -1.16223561	      8.15778835	    108.79536315	      1.89883730	     -2.76456899
     15.21333333	     -5.41189122	     -1.14507119	      3.75382403	      2.15694212	      0.93297066	      1.05458458	     -0.04335936	     -1.19487708	    -26.10570256	     37.24330399	      0.65001828	     13.88800599	     44.78833028	     -0.09886213	      7.56198218	    105.69378561	      1.84470456	     -2.14857628
     15.22000000	     -5.51422091	     -0.28505042	      4.37530834	      2.15948165	      0.93665380	      1.05547301	     -3.06020352	     -1.44963304	    -26.60561087	     34.45169767	      0.60129556	     10.03364582	     46.21135583	      0.69520784	      6.69833742	    102.24005385	      1.78442557	     -1.49520337
     15.22666667	     -5.61664493	      0.51870983	      4.77902054	      2.16262082	      0.94059362	      1.05657741	     -6.07414516	     -1.60300859	    -26.95367715	     31.44150653	      0.54875781	      5.61187317	     47.32411979	      1.09545616	      5.44443247	     98.44766491	      1.71823589	     -0.75359438
     15.23333333	     -5.76092184	      1.20995738	      5.05803794	      2.16617667	      0.94467590	      1.05768415	     -9.00286419	     -1.61897376	    -27.16431577	     28.25444356	      0.49313307	      0.71620543	     48.19851758	      1.22541076	      3.98707966	     94.35561680	      1.64681618	      0.04465289
     15.24000000	     -5.80557744	      1.91216927	      5.09908123	      2.17020412	      0.94897114	      1.05887243	    -11.97660623	     -1.69191404	    -27.21150087	     24.98694356	      0.43610444	     -4.44758201	     48.64595147	      1.04873377	      2.08735081	     89.97493466	      1.57035885	      0.93173766
     15.24666667	     -5.94468407	      2.48022258	      5.09325963	      2.17440892	      0.95305289	      1.05985931	    -14.73934974	     -1.66709103	    -27.13376416	     21.74309342	      0.37948857	     -9.67771686	     48.96484735	      0.73387454	      0.08037181	     85.36839121	      1.48995950	      1.73884606
     15.25333333	     -5.97819932	      3.10122789	      4.91622438	      2.17874895	      0.95706950	      1.06078950	    -17.46096583	     -1.80874094	    -26.93307284	     18.71859501	      0.32670111	    -14.70597332	     48.87828292	      0.34924222	     -2.25804051	     80.52911701	      1.40549824	      2.68512017
     15.26000000	     -6.12831255	      3.63677279	      4.74709297	      2.18290762	      0.96063905	      1.06133466	    -19.82694673	     -1.97853244	    -26.66969227	     16.10430912	      0.28107322	    -19.19952270	     48.73269071	      0.01643773	     -4.64100771	     75.49949362	      1.31771475	      3.26296831
     15.26666667	     -6.32797733	      4.11145856	      4.60844145	      2.18682649	      0.96380237	      1.06141093	    -21.87424487	     -2.20934341	    -26.35921156	     14.04358986	      0.24510688	    -22.98672055	     48.45641731	     -0.14244544	     -6.96444072	     70.30486552	      1.22705138	      3.61187754
     15.27333333	     -6.59399857	      4.47122271	      4.55661343	      2.19036051	      0.96643866	      1.06097160	    -23.52401123	     -2.44472272	    -26.03208291	     12.70647737	      0.22176987	    -25.93057023	     48.12080828	     -0.09242271	     -9.07028915	     64.99345553	      1.13434979	      3.69384183
     15.28000000	     -7.00406835	      4.62823144	      4.73883610	      2.19344530	      0.96840159	      1.05982936	    -24.69146106	     -2.53063678	    -25.74540336	     12.13503448	      0.21179631	    -27.95620645	     47.87334093	      0.24922324	    -10.66933490	     59.62452699	      1.04064431	      3.39471005
     15.28666667	     -7.49283849	      4.51194578	      5.09074052	      2.19601129	      0.96972664	      1.05814338	    -25.41171084	     -2.40295318	    -25.39380268	     12.35520362	      0.21563898	    -29.18568953	     47.67356229	      0.76186995	    -11.66846189	     54.27706407	      0.94731348	      2.75190610
     15.29333333	     -7.63153463	      4.40198111	      5.43908292	      2.19807846	      0.97097311	      1.05629799	    -26.12769817	     -2.35979417	    -25.03124250	     13.44515537	      0.23466223	    -29.60025347	     46.97944317	      1.45228855	    -12.37584251	     48.94583216	      0.85426593	      1.85971902
